<!DOCTYPE svg PUBLIC "-//W3C//DTD SVG 1.1//EN" "http://www.w3.org/Graphics/SVG/1.1/DTD/svg11.dtd">
<!-- Uploaded to: SVG Repo, www.svgrepo.com, Transformed by: SVG Repo Mixer Tools -->
<svg width="800px" height="800px" viewBox="0 0 24 24" fill="none" xmlns="http://www.w3.org/2000/svg">
<g id="SVGRepo_bgCarrier" stroke-width="0"/>
<g id="SVGRepo_tracerCarrier" stroke-linecap="round" stroke-linejoin="round"/>
<g id="SVGRepo_iconCarrier"> <path d="M10.65 19.11V4.89C10.65 3.54 10.08 3 8.64 3H5.01C3.57 3 3 3.54 3 4.89V19.11C3 20.46 3.57 21 5.01 21H8.64C10.08 21 10.65 20.46 10.65 19.11Z" fill="#6a7895"/> <path opacity="0.4" d="M20.9996 19.11V4.89C20.9996 3.54 20.4296 3 18.9896 3H15.3596C13.9296 3 13.3496 3.54 13.3496 4.89V19.11C13.3496 20.46 13.9196 21 15.3596 21H18.9896C20.4296 21 20.9996 20.46 20.9996 19.11Z" fill="#6a7895"/> </g>
</svg>