<!DOCTYPE svg PUBLIC "-//W3C//DTD SVG 1.1//EN" "http://www.w3.org/Graphics/SVG/1.1/DTD/svg11.dtd">
<!-- Uploaded to: SVG Repo, www.svgrepo.com, Transformed by: SVG Repo Mixer Tools -->
<svg width="800px" height="800px" viewBox="0 0 24 24" id="meteor-icon-kit__solid-expand-arrows" fill="none" xmlns="http://www.w3.org/2000/svg">
<g id="SVGRepo_bgCarrier" stroke-width="0"/>
<g id="SVGRepo_tracerCarrier" stroke-linecap="round" stroke-linejoin="round"/>
<g id="SVGRepo_iconCarrier">
<path fill-rule="evenodd" clip-rule="evenodd" d="M5.12132 3L8.56066 6.43934C9.14645 7.02513 9.14645 7.97487 8.56066 8.56066C7.97487 9.14645 7.02513 9.14645 6.43934 8.56066L3 5.12132V6.5C3 7.32843 2.32843 8 1.5 8C0.671573 8 0 7.32843 0 6.5V1.5C0 0.671573 0.671573 0 1.5 0H6.5C7.32843 0 8 0.671573 8 1.5C8 2.32843 7.32843 3 6.5 3H5.12132ZM5.12132 21H6.5C7.32843 21 8 21.6716 8 22.5C8 23.3284 7.32843 24 6.5 24H1.5C0.671573 24 0 23.3284 0 22.5V17.5C0 16.6716 0.671573 16 1.5 16C2.32843 16 3 16.6716 3 17.5V18.8787L6.43934 15.4393C7.02513 14.8536 7.97487 14.8536 8.56066 15.4393C9.14645 16.0251 9.14645 16.9749 8.56066 17.5607L5.12132 21ZM21 5.12132L17.5607 8.56066C16.9749 9.14645 16.0251 9.14645 15.4393 8.56066C14.8536 7.97487 14.8536 7.02513 15.4393 6.43934L18.8787 3H17.5C16.6716 3 16 2.32843 16 1.5C16 0.671573 16.6716 0 17.5 0H22.5C23.3284 0 24 0.671573 24 1.5V6.5C24 7.32843 23.3284 8 22.5 8C21.6716 8 21 7.32843 21 6.5V5.12132ZM18.8787 21L15.4393 17.5607C14.8536 16.9749 14.8536 16.0251 15.4393 15.4393C16.0251 14.8536 16.9749 14.8536 17.5607 15.4393L21 18.8787V17.5C21 16.6716 21.6716 16 22.5 16C23.3284 16 24 16.6716 24 17.5V22.5C24 23.3284 23.3284 24 22.5 24H17.5C16.6716 24 16 23.3284 16 22.5C16 21.6716 16.6716 21 17.5 21H18.8787Z" fill="#fafafa"/>
</g>
</svg>