<svg xmlns="http://www.w3.org/2000/svg" xmlns:xlink="http://www.w3.org/1999/xlink" viewBox="0,0,256,256" width="64px" height="64px"><g fill="#6a7895" fill-rule="nonzero" stroke="none" stroke-width="1" stroke-linecap="butt" stroke-linejoin="miter" stroke-miterlimit="10" stroke-dasharray="" stroke-dashoffset="0" font-family="none" font-weight="none" font-size="none" text-anchor="none" style="mix-blend-mode: normal"><g transform="scale(8,8)"><path d="M25.372,23.279c-2.507,-1.79 -4.909,-3.792 -7.238,-6.001c2.602,-2.673 5.117,-5.613 7.566,-8.878c0.497,-0.663 0.362,-1.604 -0.3,-2.101c-0.664,-0.495 -1.603,-0.362 -2.101,0.3c-2.366,3.155 -4.792,5.993 -7.3,8.57c-2.507,-2.577 -4.934,-5.415 -7.3,-8.57c-0.496,-0.661 -1.435,-0.794 -2.099,-0.299c-0.662,0.497 -0.797,1.437 -0.3,2.1c2.449,3.265 4.964,6.205 7.567,8.878c-2.329,2.209 -4.731,4.211 -7.238,6.001c-0.674,0.481 -0.83,1.418 -0.349,2.093c0.292,0.41 0.753,0.628 1.221,0.628c0.302,0 0.606,-0.091 0.871,-0.279c2.646,-1.89 5.177,-4.003 7.628,-6.333c2.451,2.331 4.982,4.443 7.628,6.333c0.265,0.188 0.569,0.279 0.871,0.279c0.468,0 0.929,-0.219 1.222,-0.628c0.481,-0.675 0.325,-1.611 -0.349,-2.093z"></path></g></g></svg>