<svg width="464" height="324" viewBox="0 0 464 324" fill="none" xmlns="http://www.w3.org/2000/svg">
<path d="M376 80.0144C380.5 111.5 356.748 126 333 126C309.252 126 290 105.412 290 80.0144C290 54.6172 301.252 27 325 27C348.748 27 376 54.6172 376 80.0144Z" fill="#e4ecee"/>
<path d="M460 175C460 223.049 418.81 262 368 262C317.19 262 276 223.049 276 175C276 126.951 317.19 89.5 368 89.5C418.81 89.5 460 126.951 460 175Z" fill="#e4ecee"/>
<path d="M361 237.5C361 263.734 335.928 285 305 285C274.072 285 249 263.734 249 237.5C249 211.266 274.072 190 305 190C335.928 190 361 211.266 361 237.5Z" fill="#e4ecee"/>
<path d="M276 241.5C276 284.854 233.019 320 180 320C126.981 320 84 284.854 84 241.5C84 198.146 126.981 163 180 163C233.019 163 276 198.146 276 241.5Z" fill="#e4ecee"/>
<path d="M131 173C131 208.346 102.57 237 67.5 237C32.4299 237 4 208.346 4 173C4 137.654 32.4299 109 67.5 109C102.57 109 131 137.654 131 173Z" fill="#e4ecee"/>
<path d="M195.5 163.032C195.5 198.102 153.862 226.532 102.5 226.532C40.5 234.032 6.5 198.102 6.5 163.032C6.5 127.962 51.1375 99.5324 102.5 99.5324C153.862 99.5324 195.5 127.962 195.5 163.032Z" fill="#f9fbff"/>
<path d="M335 109.5C335 167.766 279.707 215 211.5 215C143.293 215 88 167.766 88 109.5C88 51.234 143.293 4 211.5 4C279.707 4 335 51.234 335 109.5Z" fill="#f9fbff"/>
<path d="M440.5 150.5C440.5 189.988 404.506 231.243 364.465 231.243C324.424 231.243 291.965 199.231 291.965 159.743C291.965 120.255 324.424 88.243 364.465 88.243C404.506 88.243 440.5 111.012 440.5 150.5Z" fill="#f9fbff"/>
<path d="M358.5 76.5C358.5 103.286 346.823 123 317 123C287.177 123 263 101.286 263 74.5C263 47.7142 287.177 26 317 26C346.823 26 358.5 49.7142 358.5 76.5Z" fill="#f9fbff"/>
<path d="M263 214.5C263 258.407 222.482 294 172.5 294C122.518 294 82 258.407 82 214.5C82 170.593 122.518 135 172.5 135C222.482 135 263 170.593 263 214.5Z" fill="#f9fbff"/>
<path d="M358 195C358 228.137 328.227 255 291.5 255C254.773 255 225 228.137 225 195C225 161.863 254.773 135 291.5 135C328.227 135 358 161.863 358 195Z" fill="#f9fbff"/>
<path d="M293.967 28.4614C271.868 11.9616 242.986 2 211.5 2C146.822 2 93.134 44.0335 86.6555 98.4267C68.499 100.487 51.7136 106.014 38.1103 114C16.6897 124.855 2 147.206 2 173C2 209.436 31.3106 239 67.5 239C72.5286 239 77.4244 238.429 82.1273 237.348C82.0428 238.723 82 240.107 82 241.5C82 286.316 126.271 322 180 322C218.869 322 252.789 303.325 268.578 276.026C278.577 282.908 291.281 287 305 287C325.902 287 344.448 277.5 354.663 263.11C359.021 263.697 363.474 264 368 264C419.808 264 462 224.257 462 175C462 136.211 435.853 104.294 399.493 92.4469C392.911 89.9395 385.861 88.1744 378.551 87.184C378.536 84.8472 378.357 82.4097 378 79.8714C377.949 66.5426 370.824 52.877 360.841 42.5904C351.559 33.0266 339.503 26.0731 327.753 25.1135C324.443 24.3845 320.862 24 317 24C308.81 24 301.007 25.5928 293.967 28.4614Z" stroke="#806F66" stroke-width="4"/>
</svg>
