<?xml version="1.0" encoding="iso-8859-1"?>
<!-- Uploaded to: SVG Repo, www.svgrepo.com, Generator: SVG Repo Mixer Tools -->
<svg height="800px" width="800px" version="1.1" id="Layer_1" xmlns="http://www.w3.org/2000/svg" xmlns:xlink="http://www.w3.org/1999/xlink" 
	 viewBox="0 0 512 512" xml:space="preserve">
<path style="fill:#FFD960;" d="M333.435,318.269l-4.442-25.895l59.546-58.041c2.527-2.465,3.437-6.148,2.345-9.501
	c-1.089-3.355-3.99-5.801-7.482-6.309l-82.291-11.958l-36.804-74.567c-1.559-3.166-4.78-5.169-8.308-5.169s-6.752,2.003-8.312,5.169
	l-36.803,74.567l-82.291,11.958c-3.488,0.507-6.392,2.952-7.483,6.309c-1.089,3.352-0.179,7.036,2.347,9.501l59.548,58.041
	l-14.058,81.959c-0.598,3.476,0.831,6.99,3.685,9.065c2.853,2.074,6.64,2.348,9.761,0.705L256,345.407l73.6,38.695
	c1.357,0.712,2.839,1.064,4.314,1.064c1.921,0,3.836-0.596,5.45-1.769c2.853-2.074,4.281-5.589,3.687-9.065l-5.277-30.767"/>
<g style="opacity:0.2;">
	<path style="fill:#231F20;" d="M193.023,367.477l13.371-77.961c0.547-3.188-0.467-4.978-1.137-5.775l-0.525-0.512l0,0l0,0
		l-57.2-55.753c-2.527-2.465-3.436-6.148-2.348-9.501c0.234-0.716,0.563-1.379,0.949-2.001l-17.538,2.548
		c-3.488,0.507-6.392,2.952-7.483,6.309c-1.089,3.352-0.179,7.036,2.347,9.501l59.548,58.041l-14.058,81.959
		c-0.598,3.476,0.831,6.99,3.685,9.065c2.853,2.074,6.64,2.348,9.761,0.705l14.346-7.541c-0.011-0.008-0.023-0.013-0.033-0.02
		C193.855,374.467,192.426,370.953,193.023,367.477z"/>
</g>
<g>
	<path style="fill:#231F20;" d="M178.067,393.272c-3.583,0.001-7.143-1.123-10.185-3.335c-5.384-3.913-8.027-10.417-6.9-16.974
		l13.339-77.767l-56.505-55.075c-4.763-4.65-6.445-11.464-4.392-17.786c2.06-6.332,7.428-10.855,14.01-11.812l78.084-11.347
		l34.922-70.755c2.939-5.966,8.903-9.675,15.56-9.675c6.657,0,12.62,3.709,15.56,9.681l34.919,70.749l78.084,11.347
		c6.587,0.956,11.957,5.483,14.009,11.814c2.057,6.316,0.376,13.133-4.389,17.782l-56.505,55.078l3.723,21.706
		c0.756,4.4-2.2,8.58-6.601,9.335c-4.402,0.755-8.58-2.201-9.333-6.601l-4.442-25.895c-0.451-2.623,0.419-5.299,2.324-7.156
		l59.546-58.041c0.32-0.312,0.439-0.787,0.301-1.209c-0.14-0.432-0.514-0.747-0.956-0.812l-82.292-11.958
		c-2.633-0.383-4.91-2.036-6.087-4.423l-36.804-74.567c-0.203-0.411-0.607-0.662-1.058-0.662c-0.454,0-0.86,0.251-1.06,0.658
		l-36.805,74.571c-1.178,2.386-3.454,4.04-6.088,4.423l-82.291,11.958c-0.443,0.065-0.819,0.383-0.958,0.81
		c-0.137,0.421-0.017,0.9,0.305,1.215l59.545,58.038c1.906,1.857,2.775,4.533,2.324,7.156l-14.058,81.959
		c-0.077,0.449,0.105,0.891,0.471,1.159c0.361,0.262,0.848,0.297,1.243,0.091l73.607-38.696c2.357-1.238,5.17-1.237,7.524,0
		l73.6,38.694c0.323,0.169,0.711,0.302,1.248-0.089c0.361-0.262,0.548-0.72,0.472-1.164l-5.276-30.762
		c-0.755-4.4,2.2-8.58,6.601-9.335c4.392-0.755,8.58,2.201,9.335,6.602l5.276,30.767c1.121,6.56-1.524,13.061-6.9,16.97
		c-2.986,2.169-6.513,3.315-10.204,3.315c-2.801,0-5.593-0.689-8.072-1.991L256,354.541l-69.842,36.718
		C183.597,392.606,180.825,393.272,178.067,393.272z"/>
	<path style="fill:#231F20;" d="M46.482,264.084H8.084C3.618,264.084,0,260.465,0,256c0-4.465,3.618-8.084,8.084-8.084h38.398
		c4.465,0,8.084,3.62,8.084,8.084C54.566,260.465,50.948,264.084,46.482,264.084z"/>
	<path style="fill:#231F20;" d="M503.916,264.084h-38.398c-4.466,0-8.084-3.62-8.084-8.084c0-4.465,3.618-8.084,8.084-8.084h38.398
		c4.466,0,8.084,3.62,8.084,8.084C512,260.465,508.382,264.084,503.916,264.084z"/>
	<path style="fill:#231F20;" d="M80.698,439.387c-2.07,0-4.138-0.789-5.717-2.368c-3.157-3.157-3.157-8.276,0.001-11.432
		l27.151-27.15c3.156-3.157,8.275-3.157,11.432,0c3.157,3.157,3.157,8.276-0.001,11.432L86.413,437.02
		C84.836,438.598,82.766,439.387,80.698,439.387z"/>
	<path style="fill:#231F20;" d="M404.149,115.932c-2.07,0-4.138-0.789-5.717-2.368c-3.157-3.157-3.157-8.276,0.001-11.433
		l27.152-27.15c3.157-3.158,8.276-3.157,11.432,0c3.157,3.157,3.157,8.276-0.001,11.432l-27.152,27.15
		C408.287,115.143,406.218,115.932,404.149,115.932z"/>
	<path style="fill:#231F20;" d="M256,511.999c-4.466,0-8.084-3.62-8.084-8.084v-38.397c0-4.465,3.618-8.084,8.084-8.084
		s8.084,3.62,8.084,8.084v38.397C264.084,508.379,260.466,511.999,256,511.999z"/>
	<path style="fill:#231F20;" d="M256,54.567c-4.466,0-8.084-3.62-8.084-8.084V8.085c0-4.465,3.618-8.084,8.084-8.084
		s8.084,3.62,8.084,8.084v38.398C264.084,50.948,260.466,54.567,256,54.567z"/>
	<path style="fill:#231F20;" d="M431.301,439.387c-2.068,0-4.138-0.789-5.716-2.368l-27.152-27.151
		c-3.158-3.157-3.158-8.276-0.001-11.432c3.158-3.157,8.277-3.157,11.432,0l27.152,27.15c3.158,3.157,3.158,8.276,0.001,11.432
		C435.439,438.598,433.37,439.387,431.301,439.387z"/>
	<path style="fill:#231F20;" d="M107.85,115.934c-2.07,0-4.138-0.789-5.717-2.368L74.982,86.415c-3.157-3.157-3.157-8.276,0-11.432
		c3.159-3.157,8.277-3.157,11.433,0l27.151,27.152c3.157,3.157,3.157,8.276,0,11.433
		C111.988,115.145,109.918,115.934,107.85,115.934z"/>
</g>
</svg>